<svg id="Layer_1" data-name="Layer 1" xmlns="http://www.w3.org/2000/svg" viewBox="0 0 900 200"><defs><style>.cls-1{fill:#fff;}</style></defs><path class="cls-1" d="M418.63,122.83c6.75,0,11-3.79,11-8.69,0-7.3-7.38-10-13.76-14.1-8.57-5.07-13.05-9.9-13.05-17.52,0-9.54,7.45-16.38,18.83-16.38a34.13,34.13,0,0,1,15.58,3.77l-.34,9.9c-5.78-3.15-10.51-4.9-14.45-4.9-5.87,0-9.2,2.89-9.2,7.1,0,5.68,7.14,8.47,13,12.24,9.48,5.62,14.38,11,14.38,19.63,0,10.78-8.07,18.49-21.39,18.49a39,39,0,0,1-16.71-3.68l-1-12.17c6.37,4.12,11.9,6.31,17.15,6.31"/><path class="cls-1" d="M357.21,122.83c6.75,0,11-3.79,11-8.69,0-7.3-7.37-10-13.75-14.1-8.58-5.07-13.05-9.9-13.05-17.52,0-9.54,7.44-16.38,18.82-16.38a34.27,34.27,0,0,1,15.6,3.77l-.34,9.9c-5.79-3.15-10.52-4.9-14.45-4.9-5.88,0-9.2,2.89-9.2,7.1,0,5.68,7.12,8.47,13,12.24,9.46,5.62,14.36,11,14.36,19.63,0,10.78-8.06,18.49-21.37,18.49A39,39,0,0,1,341,128.69l-1-12.17c6.4,4.12,11.91,6.31,17.16,6.31"/><path class="cls-1" d="M475.52,104.44c0,12,5.06,18.12,15,18.12,9.72,0,15-6.23,15-18.39V68.25h11.06v36.08c0,18.14-9.85,28-26,28-16.67,0-26-11-26-27.77V68.25h11v36.19"/><path class="cls-1" d="M574,86.65c0-9.69-10.52-9.55-19.44-9.55V96.33C561.48,96.33,574,97,574,86.65Zm-30.13-18.4H558.2c7.9,0,14,.51,19.36,4.29a16.29,16.29,0,0,1,7.27,13.23c0,8.14-4.82,14.27-13.58,17.26l20.06,27.22h-12.7l-18.84-25.74h-5.25v25.74H543.83v-62"/><polyline class="cls-1" points="794.51 130.25 783.57 130.25 783.57 77.72 762.63 77.72 762.63 68.25 815.34 68.25 815.34 77.72 794.51 77.72 794.51 130.25"/><path class="cls-1" d="M281.64,105.52A109.43,109.43,0,0,1,292,83.62a111.41,111.41,0,0,1,10.45,21.9ZM292.4,66.23l-.46-.24-.47.24c-15.39,22.88-21.22,35.26-30.53,64H272c1-3.79,3.65-11.61,5-15.31h29.94c1.32,3.7,3.94,11.52,4.95,15.31h11.08c-9.41-29-15.41-41.53-30.54-64"/><path class="cls-1" d="M626.38,105.52a110.54,110.54,0,0,1,10.39-21.9,111.41,111.41,0,0,1,10.45,21.9Zm10.76-39.29-.47-.24-.46.24c-15.4,22.88-21.22,35.26-30.53,64h11.07c1-3.79,3.64-11.61,5-15.31h29.92c1.32,3.7,4,11.52,5,15.31h11.06c-9.39-29-15.39-41.53-30.53-64"/><polyline class="cls-1" points="699.25 91.7 739.92 132.35 740.45 132.19 740.61 131.68 740.61 68.25 730.1 68.25 730.1 106.6 689.43 65.94 688.91 66.1 688.74 66.61 688.74 130.25 699.25 130.25 699.25 91.7"/><path class="cls-1" d="M845.13,74.83v5.09a13.53,13.53,0,0,0,1.44,0,5.07,5.07,0,0,0,2.84-.55,2.4,2.4,0,0,0,.73-2.06c0-1.69-1.09-2.53-3.29-2.53h-1.72Zm6.07,13.39-3.87-6.54h-2.2v6.54h-2.19V73h3.91c3.68,0,5.5,1.4,5.5,4.23a4.24,4.24,0,0,1-2.94,4.14l4.16,6.88Zm6.5-7.47a10.36,10.36,0,1,0-3,7.32A10,10,0,0,0,857.7,80.75Zm-22.72,0a12.38,12.38,0,1,1,3.63,8.74A11.88,11.88,0,0,1,835,80.75"/><path class="cls-1" d="M100.05,88.11c9.51,15.44,18.23,31.18,28.51,45.82,10.15,14.44,21.89,27.76,33.22,41.94A72.42,72.42,0,0,1,127,182.8c-1.54-.07-3.3-1.58-4.46-2.88A328.62,328.62,0,0,1,76.11,112c-.9-1.72-.39-4.25-.29-6.39,0-.85.9-1.64,1.14-2.52C80.27,90.74,88.47,86.09,100.05,88.11Z"/><path class="cls-1" d="M177,31c3.47,2.9,6.24,5,8.8,7.38C202.41,53.59,204,58.1,195.1,78.53c-7.9,18.1-17.75,35.33-26,53.26-3.91,8.44-10.24,10.6-18.39,10.28-4.15-.16-8.44,1.58-11.95-3.17-7.28-9.87-7.54-9.63-1-20.07C154.1,92.62,167.15,64.89,175.44,35,175.74,33.94,176.26,32.92,177,31Z"/><path class="cls-1" d="M44.76,91.25A73.1,73.1,0,0,1,55.22,57.88c1.09-1.84,3.9-3.24,6.14-3.7a324.18,324.18,0,0,1,81.41-5.93c2.27.12,4.72,2.15,6.57,3.86s3,4.1,4.46,6.23c4.73,7,4.25,15.47-1.43,21.79a4.94,4.94,0,0,1-3.55,1.39A330.51,330.51,0,0,0,44.76,91.25Z"/><path class="cls-1" d="M76.11,90.19,55.48,140.5c8.19,1.56,15.29,3.59,22.5,4.1,8.31.6,13.9,3.74,18.45,11,5.64,9,12.76,17,19.39,25.68C86,180.42,43.31,149,44.2,97.29Z"/><path class="cls-1" d="M146.35,149.07c17.62-2.72,34.12-5.26,50.62-7.84a14,14,0,0,0,2.75-1.4c-3.2-8.59-6.69-17.14-9.49-25.91a15.38,15.38,0,0,1,.16-9.56c4.77-12.12,10.11-24,15.21-35.92,15.83,33.91,2.63,82.78-37.4,104.36Z"/><path class="cls-1" d="M161.86,59c-11.48-14.78-22-28.38-33.42-43.07-6.26,7.45-12,13.75-17.06,20.53-3.14,4.2-6.36,6.39-11.89,6.81-12.26.94-24.43,3-36.55,4.52C83,16.43,135.59,4.36,171.61,28.19,168.49,38,165.3,48.11,161.86,59Z"/></svg>