<svg id="Layer_1" data-name="Layer 1" xmlns="http://www.w3.org/2000/svg" viewBox="0 0 900 200"><defs><style>.cls-1{fill:#fff;}</style></defs><path class="cls-1" d="M93,154.53c.4-6.5.79-16.13.79-24.59V14.87h17.11v59.8h.4c6.09-10.62,17.11-17.51,32.45-17.51,23.6,0,40.32,19.67,40.13,48.59,0,34-21.45,50.94-42.69,50.94-13.77,0-24.78-5.31-31.86-17.9h-.59l-.79,15.74Zm17.91-38.16a31.74,31.74,0,0,0,.78,6.29c3.35,12,13.38,20.26,26,20.26,18.1,0,28.92-14.75,28.92-36.58,0-19.08-9.84-35.41-28.32-35.41-11.8,0-22.82,8.07-26.36,21.25a34.22,34.22,0,0,0-1,7.08Z"/><path class="cls-1" d="M255,154.53l-1.37-12H253c-5.31,7.47-15.54,14.16-29.11,14.16-19.28,0-29.11-13.57-29.11-27.34,0-23,20.45-35.6,57.24-35.41V92c0-7.87-2.17-22-21.64-22A47.38,47.38,0,0,0,205.63,77l-3.94-11.41c7.87-5.11,19.28-8.46,31.27-8.46,29.12,0,36.2,19.87,36.2,39v35.6a134.2,134.2,0,0,0,1.57,22.82ZM252.44,106c-18.89-.4-40.32,2.94-40.32,21.43,0,11.22,7.47,16.52,16.32,16.52,12.4,0,20.26-7.86,23-15.93a17.8,17.8,0,0,0,1-5.5Z"/><path class="cls-1" d="M292.1,14.87h17.31V154.53H292.1Z"/><path class="cls-1" d="M330.2,136.83A45.38,45.38,0,0,0,353,143.71c12.58,0,18.49-6.3,18.49-14.16,0-8.26-4.92-12.78-17.71-17.51C336.69,106,328.63,96.51,328.63,85.1c0-15.35,12.39-27.93,32.85-27.93,9.64,0,18.09,2.75,23.4,5.9l-4.33,12.59a37,37,0,0,0-19.47-5.51c-10.23,0-15.93,5.9-15.93,13,0,7.87,5.7,11.41,18.09,16.13,16.53,6.3,25,14.55,25,28.72,0,16.71-13,28.52-35.6,28.52-10.42,0-20.06-2.56-26.75-6.49Z"/><path class="cls-1" d="M460.28,154.53l-1.38-12h-.59C453,150,442.78,156.69,429.2,156.69c-19.27,0-29.11-13.57-29.11-27.34,0-23,20.46-35.6,57.24-35.41V92c0-7.87-2.16-22-21.63-22A47.41,47.41,0,0,0,410.91,77L407,65.62c7.87-5.11,19.27-8.46,31.27-8.46,29.11,0,36.19,19.87,36.19,39v35.6A133.12,133.12,0,0,0,476,154.53ZM457.72,106c-18.88-.4-40.32,2.94-40.32,21.43,0,11.22,7.48,16.52,16.33,16.52,12.39,0,20.26-7.86,23-15.93a18.09,18.09,0,0,0,1-5.5Z"/><path class="cls-1" d="M497.24,85.09c0-9.83-.2-17.9-.79-25.77H511.6l.79,15.35H513c5.32-9,14.17-17.51,29.91-17.51,13,0,22.81,7.87,26.94,19.08h.4a39.18,39.18,0,0,1,10.62-12.39c5.7-4.33,12-6.69,21-6.69,12.59,0,31.28,8.26,31.28,41.31v56.06H616.24v-53.9c0-18.29-6.69-29.3-20.65-29.3-9.83,0-17.5,7.27-20.46,15.73a28.6,28.6,0,0,0-1.37,8.65v58.82H556.84v-57c0-15.14-6.69-26.15-19.86-26.15-10.82,0-18.69,8.65-21.45,17.3a24.13,24.13,0,0,0-1.37,8.46v57.44H497.24V85.09Z"/><path class="cls-1" d="M675.54,32.58c.2,5.9-4.13,10.62-11,10.62A10.29,10.29,0,0,1,654.1,32.58a10.55,10.55,0,0,1,10.82-10.82C671.41,21.76,675.54,26.48,675.54,32.58Zm-19.27,122V59.33h17.31v95.2Z"/><path class="cls-1" d="M762.85,139.77h-.4c-5.11,9.45-15.73,16.92-31.07,16.92-22.22,0-40.32-19.27-40.32-48.19,0-35.6,23-51.34,43.08-51.34,14.74,0,24.59,7.28,29.3,16.52h.4l.58-14.35h16.33c-.39,8.06-.59,16.32-.59,26.15v108H762.85v-53.7Zm0-41.89a29.23,29.23,0,0,0-.79-7.28,25.29,25.29,0,0,0-24.78-19.67c-17.89,0-28.72,15.14-28.72,36.59,0,18.88,9.05,35.4,28.13,35.4,11.21,0,20.85-6.88,24.78-18.88a29.42,29.42,0,0,0,1.38-8.27V97.88Z"/><path class="cls-1" d="M825,70.54a14.51,14.51,0,1,1-14.46-14.12A14.18,14.18,0,0,1,825,70.54Zm-25.39,0a10.94,10.94,0,0,0,11,11.27c6.19,0,10.76-5,10.76-11.19s-4.57-11.36-10.85-11.36A11,11,0,0,0,799.63,70.54Zm8.69,7.4h-3.27V63.83a28.18,28.18,0,0,1,5.42-.43,8.83,8.83,0,0,1,4.91,1,3.88,3.88,0,0,1,1.37,3.1c0,1.55-1.2,2.75-2.92,3.27V71c1.38.52,2.15,1.55,2.58,3.44a10.62,10.62,0,0,0,1,3.53h-3.53a12.16,12.16,0,0,1-1.12-3.44c-.25-1.55-1.12-2.24-2.92-2.24h-1.55v5.68Zm.09-8H810c1.81,0,3.27-.6,3.27-2.07,0-1.29-1-2.15-3-2.15a7.88,7.88,0,0,0-1.81.17Z"/></svg>