<svg id="Layer_1" data-name="Layer 1" xmlns="http://www.w3.org/2000/svg" viewBox="0 0 900 200"><defs><style>.cls-1{fill:#fff;}</style></defs><path class="cls-1" d="M433.32,193.18c-1.22-.8-2.39-1.69-3.67-2.39C414,182.21,399.71,172,387.8,158.6c-13.2-14.85-22.39-31.95-28.55-50.75a144,144,0,0,1-6.91-34.32,13.07,13.07,0,0,0-.67-2.45V27.64c.34-.15.69-.28,1-.45A168.53,168.53,0,0,1,411.08,10.3c3.68-.39,7.34-.92,11-1.39h23.22l12.93,1.51A169.17,169.17,0,0,1,514,26.54c.66.33,1.29.72,2,1.13a7.92,7.92,0,0,1,.26,1.44c-.15,14.09.41,28.24-.63,42.27-2.85,38.14-17.23,71.16-45.65,97.42-9.21,8.5-19.65,15.32-30.58,21.4-1.59.88-3.05,2-4.57,3ZM356.45,31c0,9.68-.19,19.29.07,28.89a188.19,188.19,0,0,0,1.57,21.6,146.77,146.77,0,0,0,17.21,51.06c13.7,24.58,33.84,42.19,58.62,55,1-.48,1.88-.9,2.75-1.37,14.53-7.78,27.75-17.32,38.74-29.66,22.36-25.07,33.69-54.74,35.52-88.06.64-11.57.19-23.21.21-34.82,0-1.09-.16-2.18-.23-3.09C465.49,7.42,396.68,9.35,356.45,31Z"/><path class="cls-1" d="M384.76,97.3A12.18,12.18,0,0,0,398.86,96c1.67-1.58,3.32-3.2,5-4.8l.66.43-1.06,6.81h10.27l7.62,6.71c.7,3.42-.77,5.88-1.64,8.43s-2.1,5-3.29,7.83a53.44,53.44,0,0,0,5.9-.61c3-.66,5.54.17,8.16,1.67,9,5.17,18.59,8.43,29.37,7.52A40.4,40.4,0,0,0,470.32,116c-.56-4.35-1.13-8.73-1.79-13.81a15,15,0,0,1,2.27,1.72,36.77,36.77,0,0,1,7.69,17.24c.53,3.2-.19,6.7-.8,10-2.07,11.21-6.21,21.53-13.8,30.25a19.2,19.2,0,0,0-1.47,2.58c-4.76-9.4-10.15-16.94-17.76-23.59l1.72,10.4-.73.4a90,90,0,0,0-24-17.76c7.87,8.69,14.06,18.18,15.29,30.1.29,2.86.77,5.91-1,9.19-1-4.33-1.89-8.15-4.57-11.65-3.56,5-6.93,9.61-12.67,12.15a127.42,127.42,0,0,1-38.76-41.84c-11.17-19.45-17.1-40.47-18.66-63a35.63,35.63,0,0,1,3.63-2,170,170,0,0,1,41.72-11.28,181.89,181.89,0,0,1,32-2c22.32.83,44.06,4.61,64.74,13.42,1.11.48,2.16,1.12,3.25,1.69a137.78,137.78,0,0,1-8.53,41.45c-5.13-4.79-8.64-10.53-14.29-14.43l-12.52,2.71-.47-.89a30.58,30.58,0,0,1,2.65-2.14,15.29,15.29,0,0,0,6.76-9.89c.89-4,2.05-8,2.93-12,.6-2.77.68-5.71-2.05-7.43-2.44-1.53-5.28-2.42-8.21-1.3-2.44.93-4.8,2.07-7.17,3.18-4.85,2.27-9.67,4.6-14.53,6.86-1.11.51-2.32.81-4.31,1.48l2.66-4.71c-10.27-3.26-20.4-1.75-31.06.48,1.26-2.94,4.08-2.73,5.55-4.71l-2.52-4.36c-3.44,2.75-4.24,6.51-6,9.79l-10,6.52-1.77-.66-4.63,3c.45,1.37.82,2.51,1.31,4A37.42,37.42,0,0,0,384.76,97.3Zm25.29,8-2.47-2.7c-2.67.21-5.27.63-7.87.58a8.64,8.64,0,0,0-7.95,4.4v6.86c5.24,2,10.43,4.09,15.67,6,.56.21,1.4-.29,2.62-.58l-3.47-3.73,4.84-.35.22-.84-4.7-3.43,5.59-.75.1-.86-6.57-3.37Zm-.46,22.27-18.2-9.64-1.59,4.63c1.22,3.66,2.94,6.46,5.6,8.39Zm-23-8,3.94-5.11A19.19,19.19,0,0,0,384.06,103l-2.36,6,4.9,10.61Z"/><path class="cls-1" d="M506.64,33.27V62.5q-72.64-28-144.8-.23c-.76-2.55-1-23.09-.29-29,21-9.69,43.49-14,66.7-14.72C455.33,17.75,481.52,22.05,506.64,33.27Zm-20.8-1.77c-.62,1.57-1.48,2.79-1.53,4-.16,4.71-.06,9.42-.06,14.34L488,51c.12-2.49.23-4.55.36-7.12l3.7,1.36v7.18l4.12,1.14c-.81-6.92,1.51-13.47-2.14-19.47Zm-22-5.12c.09,6.81-.17,12.94.17,19l9.74,1.8c3-4.31,2.89-14-.16-19ZM430.19,24c0,5.29,0,10.24,0,15.19,0,1.09.12,2.18.21,3.61l3.94-.24V35.87l.58-.06L438,42.76h4.05l-2.44-6.53c3.71-4.57,3.8-7.71.33-12.19ZM411.37,25.4c-2.25,3.61-2.83,7.41-2,14.69.16,1.47,1.09,2.85,1.7,4.33l8.36-1c2.92-4.94,2.75-14.94-.31-18.93Zm-39.23,9.27V53.58l3.65-1.17V45.26L380,43.33V39.77l-4,.85v-3l5.63-2.17V31.59Zm18.58-5.45V48.08l9.61-2.1V42.25l-6.05.81V28.31Zm64.15,14.93V25.22l-3.59-.34V43.64Z"/><path class="cls-1" d="M463.7,82.12l3.12-6.72-5,.23-.3-.76a38.13,38.13,0,0,1,13.86-8.47c2.59.52,5.38.59,6.21,4.66-1.4,5.11-2.95,10.86-4.56,16.58a4.71,4.71,0,0,1-1.26,2.22c-2.54,2.13-5.19,4.13-8.21,6.51l-2.45-5.46,3.42-8.46Z"/><path class="cls-1" d="M437.12,81.29l-5,1.29c-2.58,2.4-4.7,4.5-7,6.42a8.06,8.06,0,0,1-3.51,1.91c-4.63.81-9.31.53-14.77.24L414,81.24l1.4,2.54,14.12-4.33C432.09,78.66,434.37,79.21,437.12,81.29Z"/><path class="cls-1" d="M447.92,87.26l-1.56,6.2-13.09,6.09-.63-.68c2.32-3.51,5.55-6.39,7.78-10.18.1-1.54.21-3.25.33-5.16C443.79,83.65,445.48,85.72,447.92,87.26Z"/><path class="cls-1" d="M488.38,36.4l3.34,1.06v3l-3.34-.77Z"/><path class="cls-1" d="M471.34,42.66,468.05,42V31.35l3.29.58Z"/><path class="cls-1" d="M438,27.94v3.21l-3.53.25c-.11-1.12-.21-2-.33-3.28Z"/><path class="cls-1" d="M417.08,39.49l-3.55.46V29.43l3.55-.55Z"/></svg>