<svg id="Layer_1" data-name="Layer 1" xmlns="http://www.w3.org/2000/svg" viewBox="0 0 900 200"><defs><style>.cls-1{fill:#fff;}</style></defs><path class="cls-1" d="M116.91,69.84h4.88l13.91-13.9.68-5.91A62.53,62.53,0,0,0,34.66,80.54a7.5,7.5,0,0,1,4.88-.29l27.82-4.59s1.41-2.35,2.15-2.2A34.71,34.71,0,0,1,117,69.84Z"/><path class="cls-1" d="M155.52,80.54a62.55,62.55,0,0,0-18.89-30.45L117.11,69.6a34.74,34.74,0,0,1,12.74,27.54v3.46a17.38,17.38,0,0,1,0,34.76H95.09l-3.46,3.51v20.85l3.46,3.47h34.76a45.21,45.21,0,0,0,25.67-82.65Z"/><path class="cls-1" d="M60.29,163H95.05V135.15H60.29a17.21,17.21,0,0,1-7.17-1.57l-4.88,1.52L34.23,149,33,153.89A45,45,0,0,0,60.29,163Z"/><path class="cls-1" d="M60.29,72.73a45.18,45.18,0,0,0-27.28,81l20.15-20.15a17.38,17.38,0,1,1,23-23L96.3,90.45A45.07,45.07,0,0,0,60.29,72.73Z"/><path class="cls-1" d="M267.92,143.54a44.39,44.39,0,0,1-32.21-13.23,42.91,42.91,0,0,1-13.52-31.82,43,43,0,0,1,13.52-31.82A44.39,44.39,0,0,1,267.92,53.2a43.1,43.1,0,0,1,30.89,12.45l-8.69,8.83a31.27,31.27,0,0,0-22.2-8.78A30.93,30.93,0,0,0,245,75.45a32.86,32.86,0,0,0,0,46.08,32.75,32.75,0,0,0,45.68.53,25.91,25.91,0,0,0,6.69-15.17H268.06V94.4H309.5A40.39,40.39,0,0,1,310,102a39,39,0,0,1-10.69,28.79A41.53,41.53,0,0,1,267.92,143.54Zm96.34-8.3a29.86,29.86,0,0,1-41.34,0,27.77,27.77,0,0,1-8.44-20.74,27.83,27.83,0,0,1,8.44-20.74,29.94,29.94,0,0,1,41.34,0,27.87,27.87,0,0,1,8.45,20.74,27.84,27.84,0,0,1-8.49,20.74Zm-32.21-8.14a15.81,15.81,0,0,0,22.35.73c.25-.24.5-.48.73-.73a18.76,18.76,0,0,0,0-25.24,16.06,16.06,0,0,0-22.71-.48c-.16.16-.33.32-.48.48A18.69,18.69,0,0,0,332,127.1Zm95.76,8.14a29.87,29.87,0,0,1-41.35,0A27.81,27.81,0,0,1,378,114.5a27.86,27.86,0,0,1,8.44-20.74,29.89,29.89,0,0,1,41.35,0,27.86,27.86,0,0,1,8.44,20.74A27.77,27.77,0,0,1,427.81,135.24ZM395.6,127.1a15.81,15.81,0,0,0,22.35.73c.25-.24.5-.48.73-.73a18.76,18.76,0,0,0,0-25.24,16.05,16.05,0,0,0-22.7-.48l-.48.48a18.69,18.69,0,0,0,.05,25.24Zm74,42.5a25.57,25.57,0,0,1-16.25-5.17,30,30,0,0,1-9.47-12L455,147.78a18.72,18.72,0,0,0,5.52,7.27,13.84,13.84,0,0,0,9.12,3.07A14.65,14.65,0,0,0,481,153.73,17.81,17.81,0,0,0,485.05,141v-4.19h-.44a18.68,18.68,0,0,1-15.28,6.59,26.52,26.52,0,0,1-19.52-8.5,28.07,28.07,0,0,1-8.34-20.45,28.36,28.36,0,0,1,8.34-20.59,26.45,26.45,0,0,1,19.52-8.54,21,21,0,0,1,9,2A18,18,0,0,1,484.67,92h.44V87.36h12.1v52a30.32,30.32,0,0,1-7.76,22.7A27.34,27.34,0,0,1,469.58,169.6Zm.89-37.48a14.21,14.21,0,0,0,11-4.88,18,18,0,0,0,4.43-12.5A18.39,18.39,0,0,0,481.5,102a14.18,14.18,0,0,0-11-4.88A15.08,15.08,0,0,0,459.05,102a17.78,17.78,0,0,0-4.88,12.64,17.44,17.44,0,0,0,4.88,12.49A15.12,15.12,0,0,0,470.47,132.12Zm48.27-75.65v85.31H506V56.47Zm34.94,87.07a27.67,27.67,0,0,1-20.54-8.35,28.18,28.18,0,0,1-8.25-20.69,28.64,28.64,0,0,1,8-20.89,26.24,26.24,0,0,1,19.52-8.16,24.76,24.76,0,0,1,9.76,1.91,22.85,22.85,0,0,1,7.46,4.88,33.29,33.29,0,0,1,4.88,5.9,34.72,34.72,0,0,1,2.88,5.71l1.32,3.32-39,16.07A14.64,14.64,0,0,0,553.68,132,16.65,16.65,0,0,0,568,124l9.76,6.59a32.07,32.07,0,0,1-9.38,8.89A26.52,26.52,0,0,1,553.68,143.54Zm-16.3-29.92,26-10.79a9,9,0,0,0-4.06-4.44,13.32,13.32,0,0,0-6.68-1.71,15.1,15.1,0,0,0-10.49,4.64A15.5,15.5,0,0,0,537.38,113.62Z"/><path class="cls-1" d="M645.39,143.54A40.21,40.21,0,0,1,604.49,104c0-.53,0-1.08,0-1.62a40.22,40.22,0,0,1,39.27-41.14h1.62a36.44,36.44,0,0,1,29,12.88l-7,6.83a26.52,26.52,0,0,0-21.86-10,29.89,29.89,0,0,0-21.72,8.68,30.57,30.57,0,0,0-8.84,22.75,30.53,30.53,0,0,0,8.84,22.75,29.85,29.85,0,0,0,21.72,8.68,31,31,0,0,0,24.4-11.42l7,7a38.44,38.44,0,0,1-13.51,10.3A41.14,41.14,0,0,1,645.39,143.54Z"/><path class="cls-1" d="M695.76,141.78H685.65V63h10.11Z"/><path class="cls-1" d="M712.26,94.34a28.27,28.27,0,0,1,39.83,0,28.59,28.59,0,0,1,7.81,20.5,28.59,28.59,0,0,1-7.81,20.5,28.27,28.27,0,0,1-39.83,0,28.59,28.59,0,0,1-7.81-20.5A28.55,28.55,0,0,1,712.26,94.34ZM719.77,129a17,17,0,0,0,24.08.66c.24-.21.46-.44.67-.66a19.57,19.57,0,0,0,5.22-14.15,19.47,19.47,0,0,0-5.22-14.15,17,17,0,0,0-24.08-.66c-.24.21-.46.44-.67.66a19.55,19.55,0,0,0-5.22,14.15,19.5,19.5,0,0,0,5.27,14.1Z"/><path class="cls-1" d="M815.87,141.78h-9.76v-7.46h-.29a18.79,18.79,0,0,1-7.12,6.73,19.89,19.89,0,0,1-10,2.68,19,19,0,0,1-15.33-6.14,24.47,24.47,0,0,1-5.22-16.5V87.9h10.1v31.34q0,15.09,13.33,15.08a12.39,12.39,0,0,0,10.25-4.88,18.43,18.43,0,0,0,4-11.66V87.9h10.1v53.88Z"/><path class="cls-1" d="M850.18,143.54a23.74,23.74,0,0,1-18.06-8.25,29.25,29.25,0,0,1-7.56-20.45,29.25,29.25,0,0,1,7.56-20.45,23.74,23.74,0,0,1,18.06-8.25,22.84,22.84,0,0,1,11,2.63,18.53,18.53,0,0,1,7.32,6.59H869l-.44-7.47V63h10.11v78.82h-9.76v-7.46h-.44a18.74,18.74,0,0,1-7.32,6.59A22.86,22.86,0,0,1,850.18,143.54Zm1.67-9.22A16.09,16.09,0,0,0,864,129.05a19.81,19.81,0,0,0,4.88-14.21A19.82,19.82,0,0,0,864,100.63a16.49,16.49,0,0,0-23.31-1.09c-.38.34-.75.72-1.09,1.09a19.52,19.52,0,0,0-4.88,14.15,19.52,19.52,0,0,0,4.88,14.15A16.06,16.06,0,0,0,851.85,134.32Z"/></svg>