<svg id="Layer_1" data-name="Layer 1" xmlns="http://www.w3.org/2000/svg" xmlns:xlink="http://www.w3.org/1999/xlink" viewBox="0 0 900 200"><defs><style>.cls-1{fill:none;}.cls-2{fill:#fff;fill-rule:evenodd;}.cls-3{clip-path:url(#clip-path);}</style><clipPath id="clip-path"><rect class="cls-1" x="171.63" y="14.69" width="155.36" height="172.62"/></clipPath><symbol id="heroku-border_2" data-name="heroku-border 2" viewBox="0 0 72 80"><path class="cls-2" d="M64.8,0H7.2A7.2,7.2,0,0,0,0,7.2V72.8A7.2,7.2,0,0,0,7.2,80H64.8A7.2,7.2,0,0,0,72,72.8V7.2A7.2,7.2,0,0,0,64.8,0ZM68,72.8A3.2,3.2,0,0,1,64.8,76H7.2A3.2,3.2,0,0,1,4,72.8V7.2A3.2,3.2,0,0,1,7.2,4H64.8A3.2,3.2,0,0,1,68,7.2Z"/></symbol><symbol id="heroku-h_2" data-name="heroku-h 2" viewBox="0 0 36 56"><path class="cls-2" d="M0,56l9-8L0,40ZM32.52,23.58C30.91,21.94,27.94,20,23,20A50.72,50.72,0,0,0,8,22.71V0H0V34.69l5.65-2.56C5.74,32.09,14.87,28,23,28c4.06,0,5,2.24,5,4.11V56h8V32A12.47,12.47,0,0,0,32.52,23.58ZM22,13h8A23.46,23.46,0,0,0,36,0H28A31.15,31.15,0,0,1,22,13Z"/></symbol><symbol id="heroku-text_2" data-name="heroku-text 2" viewBox="0 0 72 11.32"><path class="cls-2" d="M62.85,6.74V.21H65.8V6.72c0,1.5.49,2.18,1.67,2.18s1.65-.68,1.65-2.18V.2H72V6.74c0,2.88-1.39,4.53-4.57,4.53S62.85,9.62,62.85,6.74ZM50.43.21h3v4l3-3.95H59.8l-3.67,4.3,4,6.6H56.8L54.22,6.75l-.84,1v3.39h-3Zm-14,5.45c0-4,2.73-5.66,5.37-5.66s5.35,1.67,5.35,5.66-2.73,5.66-5.35,5.66S36.43,9.65,36.43,5.66Zm7.77,0c0-2-.87-3.23-2.4-3.23s-2.42,1.23-2.42,3.23S40.25,9,41.8,9s2.4-1.3,2.4-3.3ZM24.59.21h4.26c2.8,0,4.51.93,4.51,3.55a3,3,0,0,1-2.15,3.18l2.31,4.17H30.4L28.29,7.33h-.81v3.78H24.59V.21Zm4.15,4.87c1.21,0,1.74-.33,1.74-1.25S30,2.59,28.74,2.59H27.48V5.08ZM13.32.21H21.1V2.65H16.27V4.42h3.45v2.3H16.27v2h5.08v2.37h-8V.21ZM0,.21H3V4.26H6.57v-4H9.52v10.9H6.57V6.71H3v4.4H0Z"/></symbol></defs><g id="heroku-logotype"><g class="cls-3"><use width="72" height="80" transform="translate(171.63 14.69) scale(2.16)" xlink:href="#heroku-border_2"/></g><use width="36" height="56" transform="translate(212.62 40.58) scale(2.16)" xlink:href="#heroku-h_2"/><use width="72" height="11.32" transform="translate(360.43 68.63) scale(5.39)" xlink:href="#heroku-text_2"/></g></svg>