<svg id="Layer_1" data-name="Layer 1" xmlns="http://www.w3.org/2000/svg" viewBox="0 0 900 200"><defs><style>.cls-1{fill:#fff;}</style></defs><path class="cls-1" d="M409,61.18,422.07,58v63.38c0,7,2,11.09,6.12,12.45-2,3.85-5.44,5.88-10.42,5.88-5.88,0-9-4.07-9-12.44V61.18Zm33,77.41V92.87h-7.24V82h20.6v56.59Zm6.79-78.31a7.7,7.7,0,0,1,0,15.39,7.69,7.69,0,0,1-5.43-13.13A7.35,7.35,0,0,1,448.78,60.28ZM507,138.59V106c0-4.76-.91-8.38-2.72-10.41-1.81-2.27-4.75-3.4-9.05-3.4a12.27,12.27,0,0,0-6.12,1.59,16.12,16.12,0,0,0-5.2,4.07v40.74H470.74V82.23h9.51l2.49,5.21c3.62-4.3,8.82-6.34,15.84-6.34,6.79,0,12,2,15.85,6.11s5.88,9.73,5.88,16.75v34.63ZM530.5,110.3q0-12.9,7.47-21t19.69-8.15c8.6,0,15.16,2.49,19.92,7.7s7,12.22,7,21.27-2.49,16.07-7.25,21.51c-4.75,5.2-11.32,7.92-19.92,7.92s-15.16-2.72-19.92-7.92C533,126.14,530.5,119.13,530.5,110.3Zm13.8,0c0,12.45,4.53,18.56,13.36,18.56a11.7,11.7,0,0,0,9.73-4.75c2.49-3.17,3.62-7.93,3.62-13.81C571,98.08,566.49,92,557.66,92a11.4,11.4,0,0,0-9.73,4.76C545.44,99.89,544.3,104.41,544.3,110.3Zm87.15,28.29V135.2a15,15,0,0,1-5.43,3.17,23.82,23.82,0,0,1-8.15,1.35c-7.92,0-14-2.48-18.56-7.46s-6.79-12-6.79-20.83S595,95.36,600.21,89.7a25.05,25.05,0,0,1,19.47-8.37A25.73,25.73,0,0,1,631.45,84V61.41l13.13-3.17v80.35Zm0-43a13.5,13.5,0,0,0-8.83-3.4q-7.8,0-12.22,4.75c-2.94,3.17-4.3,7.93-4.3,13.81q0,17.66,17,17.66a16,16,0,0,0,4.75-1.13,10,10,0,0,0,3.62-2.27Zm76.73,18.78H667.89a14.43,14.43,0,0,0,4.53,10.42c2.94,2.49,6.56,3.84,11.54,3.84,5.89,0,10.64-1.58,13.59-4.75l5.2,10c-4.53,3.85-11.54,5.66-20.82,5.66q-12.9,0-20.37-7.47t-7.47-21c0-8.83,2.71-16.07,8.14-21.51a26.85,26.85,0,0,1,19.7-8.14c8.15,0,14.71,2.49,19.69,7.24a25.08,25.08,0,0,1,7.47,18.56c.23,1.58-.23,3.85-.91,7.24Zm-39.83-10H696c-.9-8.14-5.43-12.45-13.58-12.45C674.91,92.19,670.16,96.27,668.35,104.41Z"/><path class="cls-1" d="M345.79,105.55l-2.26,26-7.47-5.21.91-13.13v-.45l-.23-.23-.23-.22L320.44,101.7l.23-11.55Zm-39.38,28.29L294.86,125v2a1.72,1.72,0,0,1-.45,1.13l-8.6,5.89,9.51,7.69.22.23v.45l.46,9.06,10.63,8.82Zm-72.66,11.32,5.43,26L261.59,195l-3.85-26.26ZM254.8,149l-5.43-36.45L222.2,89.93l7.25,35.31Zm-8.6-58.86-7.47-51.6L207.49,19.08l10.19,48.66Z"/><path class="cls-1" d="M370.69,88.8h0v-.46a.22.22,0,0,0-.22-.22.23.23,0,0,1-.23-.23L343.08,72.72a1,1,0,0,0-1.14,0l-23.08,14h-.23v1.36l-.23,12.22-9.28-6.11a1.41,1.41,0,0,0-1.35,0L294,101.92l-.68-13.58V87.21h-.23l-14-9.28,13.13-6.79a1.25,1.25,0,0,0,.68-1.13l-2.49-51.38V18.4a.23.23,0,0,0-.23-.23.22.22,0,0,0-.23-.22L254.35.74a.86.86,0,0,0-.68-.22L205.45,15.46a.22.22,0,0,0-.22.22.23.23,0,0,0-.23.23v1.36L215.64,69.1c0,.23.23.46.45.68L230.58,81.1l-10.64,5a.23.23,0,0,0-.23.23.22.22,0,0,1-.22.22V87l8.15,38.94c0,.22.22.45.45.68l10.19,9.5-6.8,4.08-.22.22a.23.23,0,0,1-.23.23v.68l6.34,30.1c0,.23.23.46.23.68l24.67,27.17h.22a.22.22,0,0,1,.23.22h1.13l32.6-26a1.74,1.74,0,0,0,.45-.9l-.68-17.89,10.87,9.06a.22.22,0,0,1,.22.22h1.13l26.26-20.82a1.17,1.17,0,0,0,.45-.91l.91-13.12,7.92,5.43h.91a.22.22,0,0,0,.22-.23l21.28-17c.23-.23.45-.46.45-.68l3.85-27.84ZM346,131.12l2.26-25.35L368.2,91.51l-3.39,24.67Zm-10-4.75.9-13.13v-.45l-.22-.23-.23-.22L320.44,101.7l.23-11.55,25.12,15.62-2.26,26Zm-3.4,15.17-23.76,19-.23-26.71,25.58-18.33Zm-38,30.55-30.56,24.22L260,168.7l33.28-23.77Zm-55.69-.9-5.43-26,24.22,23.54L261.59,195ZM238.5,38.55,246,90.15,217.68,67.74,207.49,19.08Zm49.57-18.11,2,48.89L248.69,91.06,241,38.55ZM292.6,126.6l-35.31,23.54-5.43-37.58L291,90.15Zm-43.23-13.81,5.43,36.44-25.35-24L222.2,89.93Zm46.4,29.65V142l-.23-.23-9.5-7.69,8.6-5.89c.45-.23.45-.68.45-1.13v-2l11.54,8.83.23,26.71-10.64-8.83Z"/></svg>