<svg id="Layer_1" data-name="Layer 1" xmlns="http://www.w3.org/2000/svg" viewBox="0 0 900 200"><defs><style>.cls-1{fill:#fff;}</style></defs><path class="cls-1" d="M519.46,79.61l.24-.38-.26.38c-4.27-2.93-10.45-4.29-16.5-4.29-13.72,0-23.53,6.79-30,16.33s-9.43,21.87-9.43,32.84c0,7.92,1.19,15.31,6,22,2.38,3.26,8.14,11.08,26.79,11.1,12.94,0,19.07-3.36,22.4-5.3l.55-.75c.65-2.84,2.84-15.72,3.73-19l-.67-.51c-6.55,5.19-13.69,9-21.79,9-5.44,0-9.57-1.29-12.36-3.78s-4.14-6.13-4.14-10.65c0-1.67.14-3.19.26-4.86l.05-.39.38,0c12.67-.32,19.13-.49,29.74-.49,3.47,0,7.38,0,12.1,0l.82-.57a79.81,79.81,0,0,0,2.19-17.47c0-6.14-.65-17.06-10.14-23.24m-8.39,26.92-.07.36-12.42.15-12.28.16.11-.41.06-.18c.25-.86.52-1.81.83-2.77a25.1,25.1,0,0,1,4.19-8.36c.37-.46.77-.93,1.18-1.37,3.81-4.16,7.41-4.8,9.75-4.8a8.83,8.83,0,0,1,7.24,3.27,9.24,9.24,0,0,1,.7,1.06,11.08,11.08,0,0,1,1.4,4.34,12,12,0,0,1,.11,1.7,39.52,39.52,0,0,1-.8,6.85m-48.23-14-.84.84-12.23-.32-5.67,26.67c-.78,3.35-2.51,11.69-2.51,14.38a6.24,6.24,0,0,0,2.26,5.24,7.12,7.12,0,0,0,4.41,1.38c3.4,0,4.59-.95,6.85-1.82l.4.38-3,15.36-1,1a51.18,51.18,0,0,1-11.71,1.62c-11.37-.07-19.59-3.89-19.63-17.15,0-6.2,2.51-17.5,4.37-25.9L429,93.05l-9.6.33-.58-.84,2.81-14.92.87-.48h9.76l3.9-19.65.76-.86c9.77-2.5,12.59-3.7,21.49-6.63l.47.53-2.95,12.65-3.06,14.26,12.53-.39.33.65ZM613.67,67.38l-.68.74-32.28-.07L575.46,95l28.25-.86.42.67c-2.33,7.74-2.87,9.93-4.43,16.68l-.71.69-26.86-.06-3.53,18.68-4.47,24.27-.6.56-23.13.59-.28-.59,4-20.66,6.13-29.17c4.63-22.66,6-29.89,10.32-54.58l.7-.68h33.8L616.54,50l.42.56Zm45.59,13.1c-4.49-3.16-11.66-4.79-21.49-4.79a79.23,79.23,0,0,0-14.66,1.4c-4.39.84-7.12,1.54-9.44,2.21l-.64.64-3.19,16.34,1,.63c2-1,5-2.11,9-3.51A33.74,33.74,0,0,1,631,91.26c4.93,0,8.69.67,11.24,2.07a9.08,9.08,0,0,1,4.51,7.94,13.06,13.06,0,0,1-.19,2.25c-.13.63-.21,1.09-.24,1.36l-.05.35s-1.6.11-3.29.25c-1.12.11-2.54.27-4.19.46-2.69.29-5.79.67-8.5,1.13-6.48,1.08-24.74,3.92-30.21,16.14-5.75,10-4.77,23.31.87,29.78a16.3,16.3,0,0,0,9.12,5.26v0c.17.06.81.14.94.17,15.79,2.44,27.11-11.31,27.11-11.31l-1.69,8.48.69.59,17.74-.59.73-.65,10.44-52.42a39.29,39.29,0,0,0,.53-3.9c.11-1.51.19-2.73.19-3.62a17,17,0,0,0-7.53-14.53M641,132.91s-4.24,6.66-10.35,9-10.55.51-12.28-1.87c-1.4-1.85-4.3-7.7,1.22-14.28s24.08-7.08,24.08-7.08Zm86.09-58.28-4.34,22.55-.91.92a26.37,26.37,0,0,0-4.69-.41,25.19,25.19,0,0,0-20.69,10.51l-.07.07-9,46.79-.64.56-19.47.59-.51-.51,15.32-78.55.83-.82,19.28-1.87.76.82-2.22,11.38,1-.86a62.5,62.5,0,0,1,11.6-8.45,23.61,23.61,0,0,1,11.91-3.41c.38,0,.77,0,1.19,0ZM831.37,94.39c0,4.75-1.07,9.67-2.12,14.47l-9,46.2-.69.55-20.39.72-.51-.72s10.45-51,10.45-53.56c0-2.32-1.22-8.51-7.71-8.51-5.11,0-10.39,5.16-10.39,5.16l-11,56.36-.68.56-8.77.3-7.86.27-3.88.13-.24-.32-.25-.39s1.58-7.76,3.53-17.38h-.06c3-15,6.94-34.64,6.94-36.18,0-2.32-1.21-8.51-7.71-8.51-5.09,0-10.38,5.16-10.38,5.16l-11,56.36-.69.56-3.15.1-17.36.59-.44-.69,15.29-78.47.77-.78,20.33-1.91.82.82-2.15,11s9.81-10.76,22.32-11c11.68-.22,14.12,11,14.12,11s11.62-11.26,24-11c6.26.05,17.89,2.82,17.92,19.07M405.64,80.48c-4.48-3.16-11.64-4.79-21.47-4.79a79.2,79.2,0,0,0-14.65,1.4c-4.4.84-7.13,1.54-9.46,2.21l-.63.64-3.19,16.35,1,.62c2.05-1,5.06-2.11,9-3.51a34,34,0,0,1,11.15-2.14c4.94,0,8.67.67,11.25,2.07a9.08,9.08,0,0,1,4.49,7.94,13,13,0,0,1-.17,2.25,13.33,13.33,0,0,0-.24,1.36l-.06.35s-1.58.11-3.28.25c-1.11.11-2.55.27-4.18.46-2.7.29-5.8.67-8.5,1.13-6.5,1.08-24.74,3.92-30.22,16.15-5.75,10-4.76,23.3.88,29.77a16.18,16.18,0,0,0,9.12,5.26v0c.17.06.8.14.94.17,15.79,2.44,27.11-11.31,27.11-11.31l-1.69,8.48.69.59,17.74-.59L402,155l10.43-52.42a39.34,39.34,0,0,0,.55-3.9c.1-1.5.18-2.73.18-3.62a16.9,16.9,0,0,0-7.55-14.53M387.39,132.9s-4.22,6.66-10.34,9-10.54.5-12.29-1.87c-1.38-1.85-4.28-7.7,1.24-14.29s24.08-7.07,24.08-7.07ZM344.65,92.54l-.85.84-12.22-.32-5.66,26.67c-.79,3.35-2.53,11.69-2.53,14.38a6.28,6.28,0,0,0,2.26,5.24,7.14,7.14,0,0,0,4.41,1.38c3.41,0,4.6-.95,6.86-1.82l.4.38-3,15.36-1,1a51.19,51.19,0,0,1-11.72,1.62c-11.35-.07-19.58-3.89-19.63-17.15,0-6.2,2.52-17.5,4.37-25.9l4.51-21.17-9.6.33-.58-.84,2.81-14.92.87-.48h9.75L318,57.49l.77-.86c9.75-2.5,12.57-3.7,21.49-6.63l.45.53-2.95,12.65-3,14.27,12.5-.39.34.65ZM298.72,56.31,295,75.44l-.82.26a17.59,17.59,0,0,0-4.42-4.48,25.54,25.54,0,0,0-15.52-5.51,15.36,15.36,0,0,0-10.44,3.61,11.87,11.87,0,0,0-3.95,9c0,6.75,4.63,10,12.84,15l3.2,1.81c6.88,4.51,17.57,11.43,17.57,27.13,0,17.84-11.46,35.75-38.89,35.79a55.86,55.86,0,0,1-19.64-3.57,32.7,32.7,0,0,1-8.92-5l-.21-1.23,3.64-18.66.82-.28a26.82,26.82,0,0,0,6.81,5.93,28.48,28.48,0,0,0,15.65,4.88c9.68,0,17.29-5.54,17.29-14.12,0-7.69-6.08-11.54-12.43-15.28l-4.39-2.7c-6.91-4.52-16.49-10.67-16.52-26.07a36.78,36.78,0,0,1,7-21.39c6.92-9.16,17.8-12.44,28.76-12.44,14.1,0,22.17,5,25.95,7.41ZM100.39,90c5.56,3.43,13.37,5.61,22.16,5.61S139.2,93.44,144.84,90s9-8.05,9-12.94-3.33-9.47-9-12.87-13.47-5.53-22.28-5.54S106,60.81,100.42,64.2s-8.87,8-8.88,12.86,3.28,9.52,8.85,13m1.4,26.46c-5.62-3.4-13.48-5.54-22.26-5.54s-16.62,2.14-22.19,5.52-8.87,8-8.89,12.85,3.28,9.52,8.86,13,13.36,5.59,22.15,5.61,16.67-2.2,22.31-5.63,9-8,9-12.93-3.34-9.44-9-12.84m86,0c-5.63-3.4-13.49-5.54-22.28-5.54s-16.62,2.14-22.18,5.52-8.87,8-8.87,12.86,3.26,9.51,8.84,12.95,13.36,5.59,22.15,5.6,16.67-2.2,22.31-5.62,9-8,9-12.93-3.32-9.44-9-12.84M165.39,98.11a62.87,62.87,0,0,0-11.45,1.06c8-5.68,12.87-13.51,12.87-22.14,0-17.37-19.73-31.2-44.22-31.2s-44,13.83-44,31.2c0,8.65,4.82,16.47,12.7,22.16a63,63,0,0,0-11.63-1.08c-24.49,0-44,13.83-44,31.19S55,160.73,79.54,160.73c20.85,0,38.32-10.2,43.08-23.93,4.64,13.73,21.81,23.93,42.67,23.93,24.49,0,44.33-14.09,44.33-31.43s-19.75-31.19-44.23-31.19M86.56,77c0-7.83,6-13.11,9.45-15.57,7-5,16.41-7.62,26.58-7.62s19.68,2.68,26.7,7.62c3.51,2.48,9.52,7.77,9.55,15.57-.12,13-16.86,23.42-36.36,23.45-10.13,0-19.53-2.71-26.47-7.7-6-4.33-9.46-9.92-9.46-15.75m-7,75.71C69.4,152.73,60,150,53.05,145c-6-4.32-9.44-9.9-9.44-15.72,0-7.83,6-13.12,9.45-15.59,7-4.92,16.41-7.6,26.58-7.62s19.68,2.7,26.7,7.64c3.52,2.47,9.54,7.76,9.57,15.57-.12,13-16.87,23.4-36.37,23.43m43.1-30.92c-1.92-5.53-5.91-10.47-11.35-14.38a60.69,60.69,0,0,0,11.17,1,63,63,0,0,0,11.47-1.06c-5.43,3.91-9.41,8.85-11.29,14.41m42.64,30.92c-10.12,0-19.52-2.72-26.47-7.71-6-4.32-9.46-9.9-9.46-15.73,0-7.82,6-13.1,9.46-15.58,7-4.92,16.41-7.61,26.58-7.62s19.68,2.7,26.72,7.64c3.51,2.47,9.5,7.77,9.52,15.56-.09,13-16.85,23.41-36.35,23.44"/><path class="cls-1" d="M863.09,91.05C863,98,858,103.2,851.42,103.15S839.91,97.78,840,90.86s5-12.19,11.73-12.14c6.51.06,11.46,5.4,11.4,12.33m-21.61-.22c-.05,5.93,4.41,10.79,9.95,10.83s10.1-4.74,10.15-10.69a11.38,11.38,0,0,0-2.81-7.65,10.13,10.13,0,0,0-7-3.11c-5.86,0-10.23,4.49-10.28,10.62M851,84a8.57,8.57,0,0,1,3,.37,3.56,3.56,0,0,1,2.36,3.45,3.6,3.6,0,0,1-2.73,3.48l2.74,6.6h-1.94l-2.54-6.26-.13,0-1.23,0h-1.31l-.2,0L849,97.86h-1.76L847.32,84Zm-.16,6.16c1.71,0,2.36-.08,2.89-.49a2.24,2.24,0,0,0,.88-1.83,2,2,0,0,0-1.31-2,7.4,7.4,0,0,0-2.76-.31h-1.49l0,4.68Z"/></svg>