<svg id="Layer_1" data-name="Layer 1" xmlns="http://www.w3.org/2000/svg" viewBox="0 0 900 200"><defs><style>.cls-1{fill:#fff;}</style></defs><path class="cls-1" d="M168.2,48.32c2.51,1.77.42,4.32,2.88,5.39,2.23,0,3.25-2.65,6.88-3.9-8,12.12.27,21.36,3.48,31.39,1.21,3.71.42,6.31-2.88,7.94s-4.37-.65-5.81-3.44c-3.53-7-9.33-6.87-14.34-1-12,13.89-18.67,30.05-21.41,48-.75,4.88-2.6,9.85,2.23,14,1,.84,2.32,2.6,1,4.13a7.52,7.52,0,0,1-6.78,2.56c-1.77-.14-2.37-.93-3.35-2.51-5.57-8.64.24-17.46-.83-26.15-.09-.83.46-1.76.56-2.64,1-10.13,1-10.08-9-9.61-9,.41-17.83.27-25.31-6-2.32-2-5.16-1.81-6.41.88-3.85,8.36-9.84,16.11-8.22,26.28.65,3.86,1.26,7.53,4.51,10.41,1.25,1.11,3.85,3.43,1.48,5-2.6,1.72-6.22,4.93-9.19,2-2-1.91-4.74-4.14-5-7.66-1.16-13.94-2.41-27.87-3.67-41.8-.23-2.74-.46-5.48-.88-8.22-1.81-11.7,5.62-20.71,17.42-21a50.88,50.88,0,0,1,17.5,2.83c13.19,4.23,24.1.09,34.27-8.13,4.55-3.71,9.29-7.33,14.17-10.77,3-2.14,6.45-3.72,10.26-3.16S167.18,51.85,168.2,48.32Z"/><path class="cls-1" d="M562.13,110.22c0-9.61.14-19.18,0-28.79-.09-3.67.79-6.17,4.79-5s10.86-4.27,12.35,4.41a9.29,9.29,0,0,0,2.46-.79c10.73-6.64,21.08-6.87,30.69,2,3,2.74,4-.37,5.48-1.44C633,69.92,653.61,76,658,92.72a52.87,52.87,0,0,1,1.11,14.3c0,11-.18,21.92.09,32.92.1,4.27-1.3,5.39-5.48,5.39-11.93,0-11.93.18-11.93-11.7V104.84c0-8.92-3.76-13.42-11-13.61-7.52-.19-11.52,4.32-11.66,13.61-.18,11.42-.23,22.84,0,34.27.14,4.59-.92,6.36-5.94,6.22-11.28-.28-11.28,0-11.28-11V104.88c-.1-8.91-3.76-13.42-11-13.6-7.48-.19-11.61,4.31-11.8,13.56-.18,11.42-.28,22.84,0,34.27.14,4.55-.83,6.36-5.9,6.27-11.19-.24-11.19,0-11.19-11.1Z"/><path class="cls-1" d="M397.37,104.09c6.64-8.22,12.35-14.67,17.32-21.64,3.44-4.78,7.25-7,13.14-6.22,3.76.46,7.57.09,12.82.09-7.66,8.73-14.21,16.44-21.13,23.92-2.74,2.88-2.83,4.87-.65,8.22,7.8,11.65,15.28,23.63,23.64,36.73-7.06,0-13.05-.09-19,0-3.07,0-3.67-2.37-4.74-4.23-4.64-7.8-9.19-15.65-13.79-23.45-9.33,4.55-7.24,12.77-7.62,20.25-.09,2.46,1.77,6.41-1.71,7.06a34,34,0,0,1-14.82-.33c-.55-.18-.74-2.46-.74-3.71q0-42.84-.09-85.63c0-3.35,1.16-4.13,4.36-4.32,13.14-.65,13.14-.79,13.14,12.63v40.63Z"/><path class="cls-1" d="M808.2,116.21c-5.48,0-11,.33-16.44-.09s-5.62,2.23-4.27,6.18c3,8.59,14.4,11.79,23.91,7,2.14-1.07,3.72-4.69,6.23-3.16,3.25,2,5.8,5.07,8.45,7.9,1.72,1.86-.42,2.83-1.49,3.76C814.1,146.91,802,148,789.21,144.31c-11.38-3.3-16.77-11.84-18.81-23a51.47,51.47,0,0,1,1.39-25.72C776.16,82.17,787,74.7,801,75.35s24,9.15,27.3,22.75c4,16.86,3.07,18-13.84,18H808.2Zm-8.92-12a66.66,66.66,0,0,1,7.48,0c5.62.6,6.18-2,4.37-6.37s-4.74-7.15-9.52-7.7-9.06.41-12.08,4.5c-1.81,2.41-3.48,5.34-2.32,8.13s4.37,1,6.64,1.39C795.66,104.23,797.47,104.28,799.28,104.19Z"/><path class="cls-1" d="M478.08,116.21c-5.95,0-11.89.14-17.83,0-3.39-.09-3.72,1.4-3.11,4.14,2.18,10.12,14.67,14.34,25.07,8.63,2-1.06,3.34-4.78,6.18-2.64a52.81,52.81,0,0,1,8.22,8.22c1.11,1.3-.75,2.32-1.67,3.15-10.41,9.24-22.57,10.22-35.3,6.69-11.42-3.16-17-11.79-18.94-22.85a54,54,0,0,1,.69-23.77c4-14.82,15.42-23.31,30.19-22.34s25.26,10.77,27.4,25.77,2.22,15.1-12.82,15.1Zm-8.31-12a21.91,21.91,0,0,0,4.13,0c2.88-.65,7.43,2,8.36-1.58,1-3.9-1.58-7.9-5.11-10.45a12.81,12.81,0,0,0-17.79,3.3c0,.09-.13.18-.18.27-1.39,2.33-3.16,5.16-1.86,7.62,1.07,2,4.13.7,6.32.88S467.68,104.19,469.77,104.19Z"/><path class="cls-1" d="M709,139.71c-9.84,7.15-19.17,8.59-28.79,3.34-9-5-11.33-13.7-11.19-23.31.14-12.54.19-25.12,0-37.66-.09-4.36,1-5.85,5.57-5.8,11.52.14,11.52-.1,11.52,11.51,0,9.8-.14,19.6,0,29.44.14,8.78,4.23,13.24,11.42,13.15s11.2-4.6,11.29-13.28c.09-11.66.18-23.32,0-34.93-.09-4.22.79-5.94,5.48-5.89,11.61.14,11.61-.14,11.61,11.37,0,17.09-.23,34.27.14,51.36.09,5.25-1.54,7-6.55,6.27a21.85,21.85,0,0,0-5.48,0C710.36,145.7,708.64,144.17,709,139.71Z"/><path class="cls-1" d="M218,146.21c-8.78-.37-17.23-1.62-24.52-7.24-2.51-2-3.2-3.49-.42-5.71a20.73,20.73,0,0,0,3.86-3.91c2.74-3.52,5-4.27,9.42-1.39,6,4,13.33,4.46,20.44,2.09,3.06-1,5.24-2.88,5.06-6.41s-2.93-5.11-6-5.57c-5-.74-10-1-14.95-1.72-9.25-1.39-14.59-5.76-16.3-13.33-2-8.82.18-16.34,7.43-21.91,9.84-7.62,31.76-7.48,41.6,0,2.37,1.81,2.74,3,.51,5.29-4.22,4.18-7.43,9.61-14.95,4.74-3.34-2.19-8-1.4-12.12-.93-3.53.42-6.22,2.18-6.45,5.94-.28,4.13,2.74,5.48,6.13,6,4.73.7,9.61.88,14.25,1.63,10.59,1.72,16.44,7.33,17.42,16.44,1.25,11-3.25,18.94-13.1,23.08A42.38,42.38,0,0,1,218,146.21Z"/><path class="cls-1" d="M352.51,75.35a31.39,31.39,0,0,1,17.6,5.71c3.11,2.23,4.79,4.23.79,7.15a20.4,20.4,0,0,0-3.85,3.86c-2.6,3.48-4.74,3.9-8.73,1.11-7.57-5.25-16.86-1.11-19.18,8a37.48,37.48,0,0,0,0,19c2.37,9.43,12,13.51,19.73,7.76,4.28-3.16,5.72-1.07,8.22,1.39,8.08,8.08,7.76,9.89-2.92,14.35-18.72,7.8-37.76-2-42.12-21.92a52.47,52.47,0,0,1,.37-24.29C325.9,83.57,336.68,75.44,352.51,75.35Z"/><path class="cls-1" d="M258.76,111.06V98.71c0-3.77,1.16-7.62-5.3-7.62-3.85,0-1.86-4.41-2-6.78-.09-2.09-1.67-6.08,2.09-6,5.9.14,5.3-3.29,5.16-7V69.87c0-13.61,0-13.47,13.37-12.35,3.11.27,3.9,1.39,3.71,4.18-.13,2.27.24,4.59,0,6.87-.88,6.64.19,10.73,8.6,9.61,6.17-.84,3.11,4.64,3.52,7.38s1.21,6.69-3.85,5.76c-7.89-1.39-8.82,2.6-8.36,9.15a213.58,213.58,0,0,1,.09,21.92c-.13,5.25,1.58,8.31,7.39,8.08,8.68-.37,3.71,6.31,4.73,9.8,1.12,3.71-.83,4.92-4.73,5-17.74.37-24.43-6-24.43-24Z"/><path class="cls-1" d="M736.64,91c0-11.42.19-22.85-.09-34.27-.14-4.41,1-5.94,5.66-5.94,11.84,0,11.84-.19,11.84,11.88,0,19.88.14,39.75-.09,59.54,0,5.71,1.67,8.63,7.8,8.22,8.13-.51,4,5.75,4.74,9.14.84,3.67-.23,5.62-4.88,5.72-18.06.32-25-6.18-25-24.29V91Z"/><path class="cls-1" d="M524.89,81.48c8.77-6,17.5-8.22,27-3.86,6.36,3,6.45,3.9,1.62,8.87-1.76,1.81-3.57,3.53-5.24,5.39s-3.12,2.93-6.18,1.21c-8.78-4.83-16.76-.1-17,9.93q-.48,18.12,0,36.27c.14,4.88-1.39,6.13-6.13,6-11.33-.23-11.37,0-11.37-11.56,0-16.63.37-33.3-.19-49.92-.23-6.64,2.09-8.55,8-7.43C519,77.07,524.75,73.3,524.89,81.48Z"/><path class="cls-1" d="M295.86,110.08c0-9.61.14-19.18,0-28.79-.09-3.67.74-5.11,4.83-5.15C313,76,313,75.81,313,88.07c0,17.09-.14,34.27.09,51.32,0,4.17-.69,5.94-5.48,5.85C296,145.05,296,145.33,296,134,295.91,126.06,295.86,118.07,295.86,110.08Z"/><path class="cls-1" d="M305.52,64.53c-9.85,0-12.45-3.62-10.13-11.8.61-2.09,1.86-2.23,3.49-2.23a56.24,56.24,0,0,0,6.87,0c5.71-.83,7.38.93,7.66,7.11C313.69,65.74,309.28,65,305.52,64.53Z"/></svg>