<svg id="Layer_1" data-name="Layer 1" xmlns="http://www.w3.org/2000/svg" viewBox="0 0 900 200"><defs><style>.cls-1{fill:#fff;}</style></defs><path class="cls-1" d="M141.18,91.07c1.54-2.44,1.24-5.3,1.8-8,9.34-44.24,46.68-73.28,91.88-71.38,41.34,1.74,77.36,34.87,82.49,75.9,6,47.77-24,89.76-71,99.28-3,.62-6.22.36-9.09,1.75H221.16c-.39-1.14-1.42-.73-2.2-.81-37.84-5.57-66.48-31.23-75.23-67.51-1.08-4.58-1.7-9.25-2.55-13.86Zm88.74-55.88a64.93,64.93,0,0,0-65.13,64.73h0v.17c0,35.49,29.35,64.88,64.93,65s64.92-29.13,64.94-64.39C294.67,64.07,266.11,35.19,229.92,35.19Z"/><path class="cls-1" d="M728.93,118.22c-1.3.59-.85,1.92-1.07,2.88a43.19,43.19,0,0,1-39,33.75c-16.73,1.31-31.4-3.13-42-16.79-18.25-23.58-5.72-57.67,23.75-65.3,19.58-5.06,39.54,1.5,50.42,16.56a40.19,40.19,0,0,1,7.1,17.52c.11.67-.21,1.52.74,1.84Zm-45.28,8.92c7.33,0,12.91-6,12.87-13.89,0-7.75-5.75-14-12.87-14.11-7.33-.09-13,5.83-13.07,13.74s5.74,14.23,13.07,14.26Z"/><path class="cls-1" d="M461.57,120c-3.4,10.55-6.7,20.27-9.6,30.07-.93,3.13-2.48,3.95-5.49,3.87-6.47-.17-13-.23-19.43,0-3.37.15-4.67-1.19-5.57-4.25-6.28-21.42-12.73-42.78-19.17-64.15-.4-1.36-.5-2.88-2-4.53,0,5.14-.13,9.8,0,14.44.1,2.7-.8,3.77-3.54,3.67-3.91-.15-7.83.11-11.74-.09-2.49-.13-3.43.48-3.31,3.15.22,5,.05,10,.07,15,0,8.55,3.6,11.39,12.11,9.64,6.11-1.27,6.11-1.27,6.11,5.05,0,5.26-.11,10.52.05,15.76.06,2.16-.56,3.36-2.64,4.1-10,3.58-20.26,4.48-30.59,1.81-11-2.85-17.08-10.37-18.05-21.73-.85-9.64-.33-19.31-.33-29,0-2.93-.56-4.06-3.75-3.9-5.57.25-5.58,0-5.58-5.47s.12-11.25-.05-16.87c-.09-2.75.86-3.85,3.56-3.58,1,.1,2-.09,2.93,0,2.33.3,2.94-.73,2.86-2.93-.14-3.67.07-7.34-.08-11-.08-2.2.63-3.33,2.78-4q13.67-4.12,27.25-8.48c2.72-.87,3.52.08,3.48,2.73-.1,6.61.2,13.21-.13,19.81-.16,3.42,1,4,4.09,3.91,13.45-.16,26.9.06,40.36-.14,3.54,0,4.88,1.22,5.64,4.55,2,8.86,4.4,17.65,6.89,27.37,3-10,5.81-19.08,8.34-28.21.83-3,2.21-4.15,5.36-4,6.22.24,12.48.18,18.7,0,2.76-.06,4.17.78,4.93,3.59,2.21,8,4.69,15.91,7.11,23.84.37,1.21.36,2.64,1.85,3.82,2.34-8.89,4.77-17.5,6.81-26.2.79-3.42,2.09-4.8,5.87-4.76q27.13.3,54.29,0c3.57,0,4.52,1.06,4.5,4.57q-.21,36.12,0,72.26c0,3.29-1,4.18-4.18,4.11q-12.65-.3-25.31,0c-3.24.07-4.18-1-4.17-4.22.12-21.4.07-42.8.07-64.19V81.49l-.6-.14c-1.79,5.6-3.59,11.19-5.29,16.82q-7.84,25.9-15.58,51.84c-.81,2.76-2.06,4-5.14,3.91-6.83-.22-13.69-.14-20.54,0-2.56,0-3.91-.73-4.7-3.41C468.16,140.55,464.94,130.69,461.57,120Z"/><path class="cls-1" d="M596,100.15c0,16.49-.07,33,.07,49.48,0,3.08-.66,4.4-4,4.29-8.55-.22-17.11-.18-25.69,0-3.05.05-4-1-4-4q.14-49.86,0-99.71c0-2.93.73-4.11,3.9-4,8.67.19,17.35.17,26,0,2.94-.05,3.74.93,3.72,3.8C595.94,66.67,596,83.41,596,100.15Z"/><path class="cls-1" d="M635.62,113.7c0,12.1-.06,24.21,0,36.29,0,2.75-.6,4-3.67,3.91-8.8-.16-17.6-.13-26.41,0-2.69,0-3.6-.82-3.6-3.58q.15-36.84,0-73.69c0-2.77,1-3.67,3.61-3.6q13.21.14,26.42,0c2.69,0,3.63.93,3.61,3.66C635.56,89,635.62,101.34,635.62,113.7Z"/><path class="cls-1" d="M539.66,67.59c-4.77,0-9.54-.08-14.3,0-2.25.05-3.07-.86-3-3q.07-7.7,0-15.41c0-2.11.65-3.08,2.93-3.06q14.49.13,29,0c2,0,2.9.78,2.88,2.79,0,5.25-.05,10.51,0,15.77,0,2.24-1,2.93-3.17,2.93C549.19,67.52,544.43,67.59,539.66,67.59Z"/><path class="cls-1" d="M618.86,67.59c-4.63,0-9.28-.12-13.94,0-2.6.09-3.43-.9-3.37-3.4.13-5,.09-10,0-15,0-2.1.55-3.11,2.89-3.09q14.46.14,28.91,0c2.06,0,2.84.77,2.82,2.79q-.1,7.86,0,15.74c0,2.2-.89,3-3.08,2.94C628.34,67.52,623.58,67.59,618.86,67.59Z"/><path class="cls-1" d="M251.72,140.36a18.09,18.09,0,0,1-18.3-17.87h0V122a18.26,18.26,0,0,1,18.08-18.43h.27a18.46,18.46,0,0,1,18.55,18.38v.26A18.26,18.26,0,0,1,252,140.36h-.23Z"/><path class="cls-1" d="M251.88,96.33c-10.47,0-18.43-7.84-18.47-18.18a18.34,18.34,0,0,1,18.05-18.63H252A18.54,18.54,0,0,1,270.32,78a18.22,18.22,0,0,1-18.16,18.3h-.28Z"/><path class="cls-1" d="M207.9,96.33c-10.47,0-18.35-7.78-18.41-18.18a18.17,18.17,0,0,1,18.1-18.63A18.46,18.46,0,0,1,226.3,77.73V78a18.19,18.19,0,0,1-18.06,18.31Z"/><path class="cls-1" d="M207.84,140.36a18.41,18.41,0,0,1-.18-36.81,18.39,18.39,0,0,1,18.64,18.16h0v.38a18.22,18.22,0,0,1-18.17,18.27Z"/></svg>