<svg id="Layer_1" data-name="Layer 1" xmlns="http://www.w3.org/2000/svg" viewBox="0 0 900 200"><defs><style>.cls-1{fill:#fff;}</style></defs><path class="cls-1" d="M414.89,181.24c75.48,0,116.75-62.5,116.75-116.74q0-2.67-.12-5.31A83.55,83.55,0,0,0,552,37.94a81.81,81.81,0,0,1-23.56,6.46,41.21,41.21,0,0,0,18-22.66,82.28,82.28,0,0,1-26.05,10,41.07,41.07,0,0,0-69.93,37.41,116.52,116.52,0,0,1-84.58-42.87A41.07,41.07,0,0,0,378.61,81,40.74,40.74,0,0,1,360,75.88v.53A41,41,0,0,0,393,116.63a41,41,0,0,1-18.53.71,41.1,41.1,0,0,0,38.33,28.5,82.35,82.35,0,0,1-51,17.56,84.31,84.31,0,0,1-9.79-.57,116.14,116.14,0,0,0,62.88,18.41"/></svg>