<svg id="Layer_1" data-name="Layer 1" xmlns="http://www.w3.org/2000/svg" viewBox="0 0 900 200"><defs><style>.cls-1{fill:#fff;}</style></defs><path class="cls-1" d="M303.74,105c-4.09,1.12-4.49,1.33-8.55,2.45-4.27-2.45-8.12-3.86-11.69-3.37a42.07,42.07,0,0,1,1.82-5.81C293,97.15,298.55,101.16,303.74,105Z"/><path class="cls-1" d="M303.74,105c-4.09,1.12-4.49,1.33-8.55,2.45-4.27-2.45-8.12-3.86-11.69-3.37a42.07,42.07,0,0,1,1.82-5.81C293,97.15,298.55,101.16,303.74,105Z"/><path class="cls-1" d="M303.74,105c-4.09,1.12-4.49,1.33-8.55,2.45-4.27-2.45-8.12-3.86-11.69-3.37a42.07,42.07,0,0,1,1.82-5.81C293,97.15,298.55,101.16,303.74,105Z"/><path class="cls-1" d="M303.74,105c-4.09,1.12-4.49,1.33-8.55,2.45-4.27-2.45-8.12-3.86-11.69-3.37a42.07,42.07,0,0,1,1.82-5.81C293,97.15,298.55,101.16,303.74,105Z"/><path class="cls-1" d="M215.36,136.38c0,.08.07.14.07.22,5.18-14.15,11.2-29.91,18.48-43.63C226.63,106.62,220.61,122.31,215.36,136.38Zm86.13-1.25L328.66,169h.08Z"/><path class="cls-1" d="M348.83,39.67a87.93,87.93,0,1,0,25.77,62.19A87.92,87.92,0,0,0,348.83,39.67Zm-34.1,136.65c-48.53,17.51-83.54-14.69-91-26,0-.08.07-.22.07-.29,6.73-28.5,15.06-62.53,28.44-72.65,7-12.18,9-30.12,21.56-39.57,3.15,9.45,8.17,29,11.49,38.45,14.84,14.85,37.32,33.27,52.38,41,1.54.91,3.57,7.21,3.57,7.21l-6,7.63L270.4,125.5c-1.47-.14-2.87-.21-4.34-.21a89.15,89.15,0,0,0-13.45,1.29c3.15-7.84,9.87-14.15,9.87-14.15s-6.3-3.85-11.07-4.48c1.41-3.15,5-7.21,5.89-8.33-1.82.7-14.85,6.53-16.18,11.48a72.8,72.8,0,0,1,10.78,3.57,34.56,34.56,0,0,0-8.33,19.13s20.66-3.16,36.21-1.13a1.89,1.89,0,0,0,.9.21l8.17.21,25.69,42.79.21.35ZM286.65,63c6.09-5.88,7-6.72,12.82-12.39.41,11.19.2,17.08-.43,30.81C295.68,78,289,73.73,289,73.73s-1.4-7.86-2.31-10.81Zm56,94.88A79.17,79.17,0,0,1,328.74,169h-.08l-27.17-33.82L324,137.61s10.79,1.12,13.24,0c2.24-.92,14.42-18,14.42-18s-34.87-22.06-46.78-34.18C306.18,65,303.31,37.78,303.31,38c-8.75,8.75-9.89,10.18-18.69,18.21-3.78-12.4-5.61-16.66-9.45-29-11.49,9.45-20.25,25.42-26.55,44.12q-2.1,2.31-4,4.83c-.81,1.12-1.68,2.31-2.52,3.5-1.68,2.38-3.27,4.83-4.9,7.5C236.09,89,235,90.93,234,92.87c-.49.82-.92,1.75-1.33,2.59-6.73,13.06-12.33,27.81-17.14,41.11a.24.24,0,0,1-.08-.21,79.12,79.12,0,1,1,127.25,21.42Z"/><polygon class="cls-1" points="417.25 28.89 427.4 28.89 436.72 72.03 443.86 28.89 452.55 28.89 442.25 84.28 432.24 84.28 422.37 38.7 412.42 84.28 402.4 84.28 392.11 28.89 400.8 28.89 407.94 72.03 417.25 28.89"/><path class="cls-1" d="M478.8,65.38c0-7.78-1-12.25-7.91-12.25s-8,4.42-8,12.25,1,12.24,8,12.24,7.91-4.41,7.91-12.24m-24.15,0c0-11.21,3.22-19.13,16.17-19.13S487,54.17,487,65.38s-3.22,19.11-16.18,19.11-16.17-7.84-16.17-19.11"/><path class="cls-1" d="M493.4,74.62V28.82h8.16V74.48c0,2,.7,2.8,3.08,2.8v6.65a11.22,11.22,0,0,1-1.64.14c-6.72.07-9.73-3.15-9.66-9.45"/><path class="cls-1" d="M535.25,35.82a15.87,15.87,0,0,0-5.39-.7c-3.64,0-6.59,1.4-6.59,5.53v6.53h10.3v6.93h-10.3V83.65h-8.16V54.1h-6.65v-5l6.65-1.89V40c0-7.84,4.41-11.9,14.15-11.9a17.21,17.21,0,0,1,6,.91v6.86Z"/><path class="cls-1" d="M559.34,53.68a13.1,13.1,0,0,0-4-.42A18.1,18.1,0,0,0,546,55.43V83.58h-8.17V47.09h4.84L544,50a18.9,18.9,0,0,1,15.41-3.36v7Z"/><path class="cls-1" d="M575.58,66.77c-3.64.43-5.71,1.82-5.71,5.6,0,2.81,1.19,5.4,5.6,5.4a14.12,14.12,0,0,0,7.84-2.38V65.87Zm.49-13.51a31.64,31.64,0,0,0-11.42,2.17V48.36a32.8,32.8,0,0,1,12-2.11c12,0,14.69,5.26,14.69,13.06V83.65h-4.83l-1.33-2.94a17.87,17.87,0,0,1-10.94,3.78c-9.39,0-12.54-5.81-12.54-11.69,0-7.92,5.11-11.21,13.38-11.91l8.16-.63V58.44c.07-3.71-1.68-5.18-7.14-5.18"/><path class="cls-1" d="M641.28,57.89c0-3.44-2-4.7-5.19-4.7a14.37,14.37,0,0,0-7.91,2.24,38,38,0,0,1,.21,4V83.58h-8.16V57.81c0-3.43-1.9-4.69-5.19-4.69a14.79,14.79,0,0,0-7.7,2.1V83.58h-8.12V47.09h4.83L605.38,50a19,19,0,0,1,11-3.79c4.9,0,7.85,1.41,9.32,3.64a20.57,20.57,0,0,1,11.69-3.64c8.61,0,12,4.7,12,11.64V83.65h-8.16V57.89Z"/><polygon class="cls-1" points="400.23 149.13 424.04 149.13 424.04 156.63 392.11 156.63 392.11 101.86 400.23 101.86 400.23 149.13"/><path class="cls-1" d="M439.53,139.75c-3.64.41-5.72,1.82-5.72,5.6,0,2.8,1.19,5.39,5.6,5.39a13.19,13.19,0,0,0,7.85-2.38v-9.53Zm.49-13.52a31.64,31.64,0,0,0-11.42,2.17v-7.08a33.25,33.25,0,0,1,12-2.09c12,0,14.77,5.25,14.77,13.06v24.36h-4.83l-1.33-2.94a18,18,0,0,1-11.06,3.78c-9.39,0-12.54-5.81-12.54-11.69,0-7.92,5.11-11.28,13.38-11.91l8.16-.62v-1.84c0-3.72-1.75-5.18-7.14-5.18"/><path class="cls-1" d="M485.53,156.62V131.55c0-3.71-1.89-5.39-5.71-5.39a16.81,16.81,0,0,0-8.41,2.1v28.29H463.2V120.07H468l1.33,2.93a20.47,20.47,0,0,1,11.83-3.77c9.25,0,12.54,4.62,12.54,11.62v25.77Z"/><path class="cls-1" d="M515.29,140.51c6.16,0,7.49-3.21,7.49-7.34s-1.39-7.35-7.49-7.35-7.49,3.22-7.49,7.35,1.33,7.34,7.49,7.34m-2.59,17.23c-3.71.63-7.08,2.31-7.08,5.82,0,4.08,2.95,5.67,9.67,5.67,6.45,0,12.05-1.9,12.05-6.3,0-2.45-1.26-3.58-4.21-3.93Zm2.59-10.8a28.15,28.15,0,0,1-4.2-.29,3.55,3.55,0,0,0-1,2.11c0,1.25.63,1.88,2.17,2.1l13.23,1.63c7.22.91,9.8,4.13,9.8,10.23,0,9.38-9.94,13.05-20.51,13.05-9.8,0-16.88-3.15-16.88-10.61,0-5,3.71-7.91,7.56-9v-.08a5.83,5.83,0,0,1-2.87-5,7.35,7.35,0,0,1,3.26-5.89c-4.13-2.31-5.81-6.58-5.81-11.91,0-8.33,4.08-13.87,15.27-13.87a21.84,21.84,0,0,1,6.72.9h12.64v5.19l-5.19,1.47a17.79,17.79,0,0,1,1.13,6.37c0,8.16-4.08,13.73-15.27,13.73"/><path class="cls-1" d="M547.57,120.14v25.07c0,3.71,1.9,5.39,5.72,5.39a16.84,16.84,0,0,0,8.39-2.1V120.14h8.17v36.48H565l-1.33-2.94a20.83,20.83,0,0,1-11.77,3.78c-9.24,0-12.53-4.62-12.53-11.62V120.07h8.17Z"/><path class="cls-1" d="M589,139.75c-3.64.41-5.71,1.82-5.71,5.6,0,2.8,1.19,5.39,5.61,5.39a13.21,13.21,0,0,0,7.84-2.38v-9.53Zm.56-13.52a31.7,31.7,0,0,0-11.43,2.17v-7.08a33.27,33.27,0,0,1,12-2.09c12,0,14.77,5.25,14.77,13.06v24.36H600l-1.33-2.94a17.9,17.9,0,0,1-11,3.78c-9.38,0-12.53-5.81-12.53-11.69,0-7.92,5.11-11.28,13.37-11.91l8.16-.62v-1.84c-.06-3.72-1.82-5.18-7.21-5.18"/><path class="cls-1" d="M626.49,140.51c6.17,0,7.5-3.21,7.5-7.34s-1.4-7.35-7.5-7.35S619,129,619,133.17s1.4,7.34,7.49,7.34M624,157.74c-3.72.63-7.08,2.31-7.08,5.82,0,4.08,2.94,5.67,9.66,5.67,6.44,0,12-1.9,12-6.3,0-2.45-1.26-3.58-4.2-3.93Zm2.49-10.8a28,28,0,0,1-4.19-.29,3.55,3.55,0,0,0-1,2.11c0,1.25.62,1.88,2.17,2.1l13.23,1.63c7.21.91,9.79,4.13,9.79,10.23,0,9.38-10,13.05-20.52,13.05-9.79,0-16.88-3.15-16.88-10.61,0-5,3.72-7.91,7.57-9v-.08a5.83,5.83,0,0,1-2.87-5,7.35,7.35,0,0,1,3.26-5.89c-4.13-2.31-5.81-6.58-5.81-11.91,0-8.33,4.08-13.87,15.26-13.87a21.87,21.87,0,0,1,6.73.9h12.6v5.19l-5.18,1.47a18,18,0,0,1,1.13,6.37c0,8.16-4.09,13.73-15.28,13.73"/><path class="cls-1" d="M658.08,135.68h14.56c0-5-.27-9.31-6.65-9.31-6-.07-7.63,3.85-7.91,9.31m8-16.45c12.81,0,14.91,8.47,14.91,18.56,0,1.25-.07,2.37-.14,3.56H658.08c.14,5.46,2.1,9,9.59,9a28.8,28.8,0,0,0,11.63-2.17v7a33.82,33.82,0,0,1-12.82,2.24c-12.18,0-16.59-7.28-16.59-19.12s4.27-19.11,16.18-19.11"/><path class="cls-1" d="M681.19,113.55h-2.45v-1.33h6.47v1.33h-2.44v6.73h-1.55Zm5.81-1.39h2.3l2.09,5.46,2.11-5.46h2.33v8h-1.47V114h0l-2.25,6.17h-1.18L688.62,114h0v6.17h-1.47Z"/></svg>