<svg id="Layer_1" data-name="Layer 1" xmlns="http://www.w3.org/2000/svg" viewBox="0 0 900 200"><defs><style>.cls-1{fill:#fff;}</style></defs><path id="path6965" class="cls-1" d="M741.1,156.51l-40.65-54.76L737.59,52h-14l-30.2,40.55L663.23,52H649.37l37,49.79-40.56,54.76h13.95l33.63-45.34,33.71,45.34h14"/><path id="path6967" class="cls-1" d="M464.21,156.51l-40.56-54.76L460.7,52H446.84l-30.2,40.55L386.43,52H372.49l37.13,49.79L369,156.59h13.95l33.71-45.34,33.62,45.34h13.95"/><path id="path6969" class="cls-1" d="M512.9,145.56H481.84v-38H512.9c11.81,0,25.84,3.16,25.84,18.14C538.74,143,522.48,145.56,512.9,145.56ZM481.84,62.9H512.9c8.38,0,22.5,2.06,22.5,16.6,0,11-8.21,17.54-22.5,17.54H481.84Zm59.55,42.78a27.54,27.54,0,0,0-6.93-4.36,23.69,23.69,0,0,0,12.66-20.88c0-6.67-2.48-28.4-34.31-28.4H469.94V97.13H455.66c-1.89,2.39-6.08,8.13-7.71,10.44h22v48.94h42.87c23.28,0,37.74-11.72,37.74-30.55a25.16,25.16,0,0,0-9.16-20.28"/><path id="path6971" class="cls-1" d="M606.33,147.78c-22.67,0-38.5-17.88-38.5-43.55s15.83-43.55,38.5-43.55,38.34,17.88,38.34,43.55S628.92,147.78,606.33,147.78Zm0-98.14c-29.77,0-50.48,22.42-50.48,54.59s20.71,54.59,50.48,54.59c29.61,0,50.31-22.42,50.31-54.59s-20.7-54.59-50.31-54.59"/><g id="g4146"><path id="path4148" class="cls-1" d="M231.76,190.06a88.52,88.52,0,0,1-39.47-14c-10-6.52-12.23-9.19-12.23-14.55,0-10.73,11.8-29.55,32-51,11.46-12.18,27.42-26.46,29.14-26.08,3.36.75,30.19,27,40.23,39.28,15.9,19.54,23.21,35.51,19.49,42.63-2.82,5.41-20.32,16-33.17,20A96.74,96.74,0,0,1,231.76,190.06Zm-65.17-39.72c-8.28-12.73-12.47-25.28-14.51-43.41-.67-6-.43-9.41,1.52-21.71,2.44-15.32,11.13-33,21.61-43.95,4.47-4.65,4.87-4.76,10.3-2.93,6.61,2.24,13.65,7.1,24.58,17l6.38,5.77L213,65.41c-16.19,19.89-33.25,48.08-39.67,65.52-3.5,9.47-4.91,19-3.41,22.95C170.92,156.55,170,155.56,166.59,150.34ZM312.1,152.5c.81-4-.21-11.35-2.65-18.76-5.23-16.06-22.81-45.95-38.94-66.25l-5.08-6.39L270.92,56c7.18-6.61,12.16-10.56,17.54-13.9,4.25-2.65,10.3-5,12.91-5,1.6,0,7.25,5.87,11.82,12.29A93.07,93.07,0,0,1,328.1,84c1.7,8.11,1.84,25.45.27,33.51a106,106,0,0,1-6.66,21.08,113.2,113.2,0,0,1-9.11,15.62c-1.11,1.38-1.11,1.38-.5-1.68ZM233.22,34.11c-7.45-3.79-18.94-7.85-25.29-8.95a46.74,46.74,0,0,0-8.44-.48c-5.24.26-5,0,3.4-4a86.27,86.27,0,0,1,20.72-6.9c8.9-1.88,25.6-1.9,34.36,0,9.45,2,20.58,6.15,26.85,10l1.86,1.15-4.27-.22c-8.5-.43-20.88,3-34.18,9.49a67,67,0,0,1-7.75,3.46C240.24,37.61,237,36,233.22,34.11Z"/></g></svg>